<?xml version="1.0" encoding="utf-8"?>
<!-- Svg Vector Icons : http://www.onlinewebfonts.com/icon -->
<!DOCTYPE svg PUBLIC "-//W3C//DTD SVG 1.1//EN" "http://www.w3.org/Graphics/SVG/1.1/DTD/svg11.dtd">
<svg version="1.1" xmlns="http://www.w3.org/2000/svg" xmlns:xlink="http://www.w3.org/1999/xlink" x="0px" y="0px" viewBox="0 0 256 256" enable-background="new 0 0 256 256" xml:space="preserve">
<metadata> Svg Vector Icons : http://www.onlinewebfonts.com/icon </metadata>
<g><g><g><path fill="#000000" d="M128,10C62.8,10,10,62.8,10,128c0,65.2,52.8,118,118,118c65.2,0,118-52.8,118-118C246,62.8,193.2,10,128,10z M190.3,182.2l-9.4,9.4c-1.7,1.7-6.6,2.7-6.8,2.7c-29.9,0.3-58.7-11.5-79.8-32.6c-21.2-21.2-33-50.1-32.6-80.1c0,0,1.1-4.8,2.8-6.5l9.4-9.4c3.5-3.5,10.1-5,14.8-3.5l2,0.7c4.6,1.6,9.5,6.7,10.8,11.4l4.7,17.4c1.3,4.7-0.5,11.5-3.9,14.9l-6.3,6.3c6.2,22.9,24.2,40.9,47.1,47.1l6.3-6.3c3.5-3.5,10.2-5.2,14.9-3.9l17.4,4.8c4.7,1.3,9.8,6.1,11.4,10.8l0.7,2C195.3,172.1,193.8,178.7,190.3,182.2z"/></g><g></g><g></g><g></g><g></g><g></g><g></g><g></g><g></g><g></g><g></g><g></g><g></g><g></g><g></g><g></g></g></g>
</svg>